/* XPM */
static char *_f77e83e6f7c47dc8b16f3b8bcf5c946[] = {
/* columns rows colors chars-per-pixel */
"64 64 256 2 ",
"   c #030300",
".  c #0C0100",
"X  c #0B0B03",
"o  c #170903",
"O  c #181605",
"+  c #10190D",
"@  c #261608",
"#  c #2D170D",
"$  c #192807",
"%  c #163407",
"&  c #1C2B15",
"*  c #1B3916",
"=  c #092805",
"-  c #262906",
";  c #382609",
":  c #2A370C",
">  c #383608",
",  c #2A261A",
"<  c #372818",
"1  c #283719",
"2  c #363718",
"3  c #392C26",
"4  c #283924",
"5  c #373629",
"6  c #343635",
"7  c #1D2528",
"8  c #472919",
"9  c #4A3819",
"0  c #4F3713",
"q  c #483828",
"w  c #543825",
"e  c #4F3931",
"r  c #673C28",
"t  c #64270A",
"y  c #2A4819",
"u  c #374518",
"i  c #354D15",
"p  c #374628",
"a  c #385728",
"s  c #304E2D",
"d  c #30552C",
"f  c #4F4D18",
"g  c #63531C",
"h  c #786711",
"j  c #57422A",
"k  c #475629",
"l  c #4E4C34",
"z  c #6F4C2F",
"x  c #516935",
"c  c #6C7236",
"v  c #363E49",
"b  c #2C3C43",
"n  c #39454C",
"m  c #3B4B56",
"M  c #334852",
"N  c #3D5766",
"B  c #484A49",
"V  c #575548",
"C  c #444C54",
"Z  c #494D54",
"A  c #4B545B",
"S  c #485358",
"D  c #57585A",
"F  c #514F4D",
"G  c #675D5A",
"H  c #6E5348",
"J  c #566956",
"K  c #546D4B",
"L  c #687947",
"P  c #68635B",
"I  c #75675A",
"U  c #687957",
"Y  c #736E4F",
"T  c #4C5C64",
"R  c #465B67",
"E  c #535C64",
"W  c #5B5E64",
"Q  c #585E6A",
"!  c #4E5C73",
"~  c #665D63",
"^  c #4C616B",
"/  c #53626B",
"(  c #5B636B",
")  c #596266",
"_  c #4A6678",
"`  c #5B6B74",
"'  c #586977",
"]  c #5B727B",
"[  c #477A7E",
"{  c #646264",
"}  c #6B6564",
"|  c #6A646A",
" . c #6D6B6C",
".. c #666868",
"X. c #746A64",
"o. c #776C68",
"O. c #7C736C",
"+. c #75736A",
"@. c #636C74",
"#. c #6B6E74",
"$. c #666B78",
"%. c #756C73",
"&. c #64737B",
"*. c #6B747C",
"=. c #6A7477",
"-. c #737374",
";. c #7C7473",
":. c #74747C",
">. c #79797B",
",. c #6B7666",
"<. c #89573B",
"1. c #856935",
"2. c #83711F",
"3. c #875B44",
"4. c #946D50",
"5. c #AC7252",
"6. c #856D67",
"7. c #86756A",
"8. c #857A78",
"9. c #967865",
"0. c #AA7D68",
"q. c #6E8537",
"w. c #698A4A",
"e. c #778B4A",
"r. c #798A58",
"t. c #779556",
"y. c #6E9151",
"u. c #7B9465",
"i. c #73886C",
"p. c #689262",
"a. c #958431",
"s. c #A89839",
"d. c #87975A",
"f. c #91914F",
"g. c #A89450",
"h. c #8BA85E",
"j. c #A9A656",
"k. c #B5A855",
"l. c #848D67",
"z. c #869967",
"x. c #89827C",
"c. c #92857B",
"v. c #879A73",
"b. c #949B72",
"n. c #B68669",
"m. c #AF8F73",
"M. c #8AA767",
"N. c #99B679",
"B. c #93A872",
"V. c #A4B879",
"C. c #B2B26B",
"Z. c #C3B459",
"A. c #C99171",
"S. c #CAB272",
"D. c #EDB97D",
"F. c #B3C37B",
"G. c #D3C875",
"H. c #576C86",
"J. c #597786",
"K. c #5B7C93",
"L. c #4B7085",
"P. c #637683",
"I. c #6C7B84",
"U. c #677A88",
"Y. c #737C83",
"T. c #777C86",
"R. c #697D96",
"E. c #6E7893",
"W. c #867D83",
"Q. c #5B8296",
"!. c #5F838F",
"~. c #6C828D",
"^. c #68848A",
"/. c #73838C",
"(. c #7B838C",
"). c #788587",
"_. c #648494",
"`. c #6B8A9C",
"'. c #688597",
"]. c #7B8A93",
"[. c #748B9B",
"{. c #778997",
"}. c #76939B",
"|. c #74968A",
" X c #6A8BA4",
".X c #778BA6",
"XX c #6C94A8",
"oX c #7897A8",
"OX c #7698B6",
"+X c #6C92B1",
"@X c #7CA4B2",
"#X c #6691A3",
"$X c #878688",
"%X c #958B88",
"&X c #99938B",
"*X c #838C93",
"=X c #888B94",
"-X c #87939A",
";X c #979699",
":X c #918F8E",
">X c #A59A96",
",X c #AF9686",
"<X c #96AA8B",
"1X c #A6B786",
"2X c #ADAC95",
"3X c #8799A5",
"4X c #969DA4",
"5X c #859AB5",
"6X c #8F93A8",
"7X c #A59EA6",
"8X c #8AA6AA",
"9X c #97A3A8",
"0X c #88A7B7",
"qX c #97A9B5",
"wX c #93B3B9",
"eX c #A7A6A7",
"rX c #B5ABA6",
"tX c #BBB5AB",
"yX c #A7AAB3",
"uX c #B7B7B7",
"iX c #A9B4B1",
"pX c #CA9D86",
"aX c #D9A788",
"sX c #D5B091",
"dX c #E7B798",
"fX c #EAB48D",
"gX c #C8B9AD",
"hX c #E8BEA3",
"jX c #B6C795",
"kX c #B1CA90",
"lX c #B8CCA9",
"zX c #CACD8E",
"xX c #F3C996",
"cX c #C6D8A8",
"vX c #C7C3BB",
"bX c #D5C6BA",
"nX c #D3D5B3",
"mX c #F9C8AA",
"MX c #ECCAB0",
"NX c #D6E9B5",
"BX c #EAF2BF",
"VX c #99B6C6",
"CX c #91B2C7",
"ZX c #A6BCC9",
"AX c #9AC2D2",
"SX c #A7C3CA",
"DX c #A8C7D7",
"FX c #B5CCD4",
"GX c #B2D2E7",
"HX c #C9C6C5",
"JX c #D6D2C9",
"KX c #EFD8C6",
"LX c #DBECC4",
"PX c #EBF4CE",
"IX c #FBFEE9",
"UX c #CDE4E6",
/* pixels */
"B J *.) A C =.).-X{ D o.7.O.7.$X-Xi.*X*X=X=X#.%.;X%X;X8.6.%.W.%XrX,XrXuXeXeX>X7.6.W.rXW.W.yXW.7X6X$..XVXCXXX_. X_ ] N oXJ.AXOXL.",
"S ( =.E S S ` :.(.D Z W ~ D G } =.&.].=X=X$X:.| ;X;XW.%.o.G &X%XrX&XeXvX2X).:.~ %.W.W.~ ~ W.Z Y.$.! 5XZXCXQ. X@X`._ ] {.oXDXQ.L.",
"/ *.*.` S / &.*.@.T S Q Q Q @.@./ ( >.-X=XT.W.| W.W.W.W.W.I &XW.7X&X;X:X>.-.Y.*.I.%.~ W | E.H.H.! E..XVXAX X#XXXwX!.^.`.CXAX XK.",
"&.).=./ C &.Y././ T / H.U.E.`.E.` ( @.=X-X$X:X .~ 8.%XgXrX8.W.%X7XW.%. .#.).]./.@.' $.].W.5X6X-X` =X`.VXDX@X_.!.!._.' wXSXVX X_ ",
"i.'.` T m &.I.I.^ ! E.R. X X+X.X(.*.( ).-X;X7XW.%.W.rXrXW.%XW.&X7X~ E {.3X^.] ' ` P.U.0X@X#X@X!.^ [.[.VXGX@X_.!.] ^.^.SXFX0X`.J.",
"'.~.] ^ T =.I.&./ H.R.+X X+XOX+X5X(.( I.6X7X7X:X%.W.gX%X6.rXW.8.%.Y.].8X}.J._ J.R.'._.oX#X[ p._ ^ ~.~.wXGXAXXX!.}.^.wXDXDX`._ J.",
"`.'.^.P.^.I.I.` ' ] R..XR.+XOXOX5X*X$.$.;X7X;X7X6.%.W.%X%XrX8.~ Q 6XqX'.[ K.`.oXXX XQ.K.L.[ L.J.J.~._.oXAXCXOX!.J.}.DXFX8X!._ N ",
"_._.[.'.3X/.Y.` *.*.E.R.K.R.R.OX3X*XY...=X7X:XrX7X6.} 7XtXrX8.~ *X5X[.' J.+X@X@XQ.K.L.N [ !.XX0XU.[.oX'. X'.Q.`.}.UXSXlX] }.SXoX",
" XXXJ.8X}./.*.( | Y.#.( ' ! P.6X6X-XW.T.| :X:X;X&Xo.O.P 6.8.P  .4X3XU.' Q.CXAX+XL.L.L.L.R.5X5XR.^ [.}.`.Q.J.@X!.VXUXFX|.wXDXSXGX",
"Q.Q.Q.oX3X' ) D ..#.{ ~ ~ W #.=X6X6X-XP.| =X>XrXgX&Xo.I O.o.I } Y.P.J.[.CX@X@XK._ L.R.R.W.E.H.H.` P.qX`.[ _.Q.CXDXSXwX8XFXFXSXAX",
"`._.oX8X8X! T A W D D D G G } W.6X6X6XE.%.$XeXHXHXgXo.X.7.I 7.X.| ) ` 0XAX@XH.L.H.E.+XOXE.$.! ' ' ` wX3XJ.@X`.GXUXwX}.SXVX#X#X!.",
"J.] P.U.I.T E ) $.W G } G G G W.6X6XyXW.#.%.>XHXHXgXc.O.6.X.7.o.;...` 8XwXK.L._..X5XR.E.P.H.E.*XQ I.].oXXX XwXDXDXoXoXFXoXQ. X X",
"S S S ^ T &.&.I.-XT.W.:.} G G 8.6X6XqXW.:.| 8.tXHXJXrX6.I 7.7.o.;.o.| :.*._ Q.CXOXOX.XE.6X6X[.~./ (.{.P.`.J.GXDXCX_.VXGX`.oX+X+X",
"Z F S ^ / ].~.{.6XI.*XY.~ } G 8.7X6X7X6X$X| +.&XJXKXbXc.o.o.o.6.O.6.X.} W *.wXVXOXR..XR.E.6X_.^ E (.qX] [.`.GXGX0X!.DXAX_.@XQ.K.",
"V B V D / I.U./.5XP.{.$.Q  .~ %.7XqXyXyX$X>.X.8.tXKXgXgX%X6.7.6.6.6.6.%...}.DX0XR.+XR. X.X`.J.^ E Y.4XU.oX0XDXDXoX`.GXAXOX+X#XQ.",
"J B ) S ` U.~..XVX[.6XT.Q %.~ | ;XyXZXyXT.W.} o.&XbXgXgXrXo.c.o.9.6.6.7.#.9XSXP.R.R. XOXOX_.] ' E T.Y.H..X@XGXVXXX}.AXAXCXQ.Q.+X",
"] J._ R U.U.[.~.{.-X9X-X=X{ %.} | eXuX6XZXW.| 8.;.tXJXbXvX2Xx.c.6.9.9.8.-.yX3X! K. XCX XXX XXXU.) ../.P..X5XGXCXOX5X8XFXSX}.J.@X",
" X'.L._ K.H.U./ ( /.4X4X:X{ %.} %.8.;XeXgX6X>.:.;.&XbXbXHXKXvXc.0.6.X.8.:.Y.' H.oX+XR.K.'.oX.XH.{ >.(.P.OX5XGXVX3XoX|.8XwXqXoX0X",
"R.K.L._ `.~.P.R T Y.9X;X=X{  .} X.;.>XuX4XuXyX%.X.X.c.c.c.rXuXtXgXrX8.8.} { ( {.VX5X'.`.'.5X.X].=.:XT.' OX5XDXAXoX0XqX-X~.J.[.CX",
"K.J._ H.[.{.~.' ( $X9X7X$XP  .} } 7.7XuX;XHXJX;Xx.P e < 5 q D rXJXbXrX8.| ..Y.9XZX6XU.[.[.3X{.*X$X9X&.! .XOXCXGX0X-X-X}.4X[.5X5X",
".X`._ ' P.U.&.' $.-X4X;X$XX.X.} o.X.8.eXyXHXHXHX%Xj o o , O o B ,XrX,X8.%.%.$XZXyX*.^ *.4X-X(.T.:XiX&.! '..X0XSXFX9XqXFXFXqX5X5X",
"'.'._ U.U.U.' E ` -XeXeX>. . .} X.X.P $XuXJXHXuXG # o @ @ , , . e I W.6.>.i.4XiX-X@.) =.4Xi.:.-.-XeX@.Y.'.oXoX@XFXFXUXUXFX[..X5X",
"] H._ '.[./.` E ..;X9XeX>.} } X.P O.o.>.HXJXrXP < o @ o o , , + . 8 6.o.;.x.7XeX....,.+.+.V B l i.x.J |.~.}.{.] 8X<XiXeX].{.5X5X",
"[.[.' U./.T.` ) #.eXyXeX .G { X.X.I +.8.HXtXO., # < ; o @ , o @ o o F 8.x.} v.yXlXLXJXPXbXnX&XX.P P n |.@.|.i.^ J i.,.J n /.5X.X",
"' _ &.oX/.].@.E #.iX9X;X-.{ } } I P o.&XJXrXe o ; H H j 8 @ # . . . 5 O.O.tXPXIXIXPXPXbXLXIXPXMX1XY J K N K K w.<X<Xi.i.J ].9X_.",
"U._ P.-XE.I.^ E $.eX4X;X..{ { } } G x.tXJX>.O o j 9.m.m.r @ o o @ . . P vXIXIXLXcX<Xi.l.l.l.1XnXLX1X,.p.d x |.u.w.N.B.r.,.|.3X~.",
"3X] ' {.U.I.T ) (.yXyX;X..~  .}  .P :XHXgXe . e c.sXmXhX9.; o . . . . X.IXIX2Xv.w.p.M.N.b.d.d.l.zXPX1Xr.x x h.kXy.d.N.r.p.|.-X}.",
"[.] U.[.{.P.T ` 4XyXyX:XW ..$XT.O.} eXJXrX# o 9.hXmXMXmXdX4.8 o . +   F JX<Xl.1XLXLXLXNXPXBXjXd.f.1XcXN.t.y.t.h.V.e.M.kXU p.8X8X",
"N ! 3X3X[.U.T @.qXqXyX*X#.$XiXuX>.x.uXHX%Xo # m.MXmXfXdXhXfX9.8 . X   & i.&XjXNXcXkXN.N.N.cXNXPXb.c zXcXt.t.h.q.F.e.t.kXu.p.@X8X",
"N R [.~.[.{._ &.-X*X*XQ ) T.4XeX4XeXHXuXH . 8 ,XhXmXdXfXhXhXpX3..       V jXlXN.y.y.y.y.w.w.M.kXNXg.f.zXF.q.h.y.h.h.h.u.kXi.|.@X",
"H.N _.J.3X6X&.{.qX9X4X$.T.;X9XyXeXuXvXrX6 . < pXaXfXfXmXhXA.n.6.# +     5 <XB.w.p.y.y.y.p.p.p.y.zXMXf.z.cXh.q.h.q.j.h.w.lX|.|.@X",
"R N 3X3XwX3XP.9X4X3X4X` (.3X6X9X:.4XuXuXe o # 0.3.<.4.aXfX5.r t o     X 1 u.w.p.N.kXcXkXN.h.y.t.e.zXV.d.F.F.q.C.q.h.M.y.N.<Xp.|.",
"N m oX9X/.&.*.;X9X4XY.#.].3X3X*X;XuXrXgX# # r 3.5.z <.0.3.<.r r , . X   & u.1XlXjX1Xu.N.N.1Xt.z.e.f.cXB.F.V.y.h.t.y.N.t.y.kXp.w.",
"&.&.].).A n ) 9XyX9X>.).;X9X9X*X9XvXHX>X# 8 0.W.0.1.5.A.3.H r r 8 o . X J lXlXB.t.d.t.z.d.M.d.r.d.B.F.d.t.q.q.w.h.y.N.t.y.N.t.w.",
"3X].~.T T ) ) ) i.T.=.).8X9XqX9XlXiXHXW.e 3 0.pXpXm.A.A.5.<.5.3.e # X 4 eXjXu.u.M.kXcXNXjXV.r.x h.B.e.c a x % x h.q.t.N.y.h.N.y.",
"3X8X}.*.&.( S D A ( ).*X-X3X4XFXHX9XW.6.~ e 6.pXsXfXpXaX5.r n.5.e @ @ p <Xp.B.cXPXBXBXPXPXNX1XL t.t.i i i i % i y.q.t.F.y.t.F.h.",
"9X8X3X3X}.` A ( E E ;X-X-X;X).iXlXiXx.G 6.H H pXdXxXfXfX5.<.A.5.j o o 2 U B.LXcX1Xj.r.b.kXNXNXp.x L y y i a y a x k q.F.h.q.F.h.",
"oX4X3X-X-X(.-.S ) A *X*.).-X` *XZXeX>.} 6.H w 0.mXmXdXfX5.r 5.A.r O   $ <XlXjXM.L L Y e.r.kXLXB.y x d y a y d a i i x V.N.q.F.C.",
"T [.6X3X].].-X@.) ( ).>.).-X=.).uX:X$X%XW.H r 5.dXfXfXfX5.t <.0.e @   P nX1Xr.r.jX1XjX1Xe.r.lXB.% d x y y y y x a i f h.C.q.k.F.",
"' R ' -X-X{.4X-X` -X-X9X9X;X9X9XiX&XuXeX7X>X9.r fXaXA.D.5.t r 0.e . q vXb.U <X1Xd.L b.cX1Xr.<Xw.% d d * y y y a k i : c f.g q.g.",
"3X' S ` ].3X3X).].9X;X*X9XiXeXiXeXiXuXrXrX2Xz 8 n.dXn.A.5.t 5.5.8 o H X.l.1X1Xd.r.b.e.b.NXu.u.d * d d % * * % K k k - f j.C.C.zX",
"-X~.R R ! -X8X4X].9X9X*X4X4X;X7XuX:XeXHX7XG 8 8 0.dXaXA.5.5.0.3.< o @ , <XtXjXl.z.1Xf L LXu.w.4 = d x * d 4 & K p $ 2 f.C.j.S.G.",
"8X3XR R m {.].3X].-X-X-X&X:X$X$XeX;X7XyX;Xe < o 5.aXhXdXA.A.5.r o .   O r.v.cXb.z.jXk r.LX<Xd = % d d * s 4 * K & - f d.C.j.C.k.",
"3X/.m R ' /.U.].( / ) ( ) J D D ~ :.%.#.4X .q e 5.n.dXdXaXA.3.t @     , l.2XcXl.L 1X1XNXlXp.s * % x d = s * & V $ k p c C.C.j.j.",
"I./ m m {.{.{.].` E T ) D D D G ~ | D J ).i.3 e ,X3.0.fXaX0.r @ . , 5 5 U <Xv.B.r.L l.<Xu.p.* = % x d * s & = s 2 p l f.zXj.f.k.",
"~.J.' m P.U.}.~.R S A D D D G D G F ) ,.i.iX+.I sX3.z 5.5.r # @ # 3 B F K l.U r.L K u.r.U J s b y d y % 1 = & 5 p l x d.f.f.j.j.",
"-X/.U.' &.P.U./ T T I.i.-.;.>.;.W.W.4X*X).<X%XY hX,X<.r 8 # # 8   7 | %XP U r.x x x x x K K * = a i % = & $ p p p l c e.a.h.C.j.",
"oXP.P.{.{.I.J.T C Q T.-X).$X:X%X;X4X9X9X9X( ..l.hXhXaXn.3.r w # o o o v i.i.l.k f Y l Y k l d = u : $ = p 4 p 1 5 x c h.F.k.j.F.",
"~.^.' ' E.*./ C C / T.=X$X>.).:X$X$X;X(.>.) :Xl.,XMXMXdXA.9.4.r # 6 X 3 ,.rX2XY f.m.g.D.S.4.1.0 O > p 1 6 y 4 p p k f.B.g.a.f.g.",
"R R ' &.&.` A S C W #.:.:.#.,.>.$XY.(.Y.*.A $X$X7.gXMXdXS.A.n.<.H ~ 3 3 V I b.m.sXxXD.D.xXD.S.z 0 2 5 1 4 4 4 4 - > 4.C.C.S.S.zX",
"M M ' J.' T v A C A ~ W D D D D $X$.$.Y.=.E >.&XI ,XsXdXdXaXn.9.W.6.7 3 +.P Y Y C.xXxXD.xXD.n.g 8 : 1 1 7 & & $ O i a.j.k.Z.F.Z.",
"N M ' ` R Q v T Z Z A Z C Z D ) W.#.| T.@.( -.%XI l.pXdXdXaXn.m.%X6., + J D G I z n.xXfXfXD.4.t > - 5 l 4 $ & $ u g j.C.j.k.j.k.",
"] M ^ / / &.C C Z Z Z Z S S { >.W.T.%.$.@.&.#.>.I I m.sXmXsXA.sX9.8.6 + Z D | I l I n.aXsXxX1.z w 2 q p , + $ 1 - - g f.k.k.s.k.",
"' b n ^ ^.(.E C Z Z Z Z Z D @.).T.T.T.' *.*. ...6.H c.xXmXMXsXsX%X;.7 + W $.%.D I j j g.dXMXc g 9 < 2 5 p 4 : - $ c G.G.Z.C.Z.G.",
"N M M ^ ).].) n Z E E S A ..=.=.T.%.T.Q (./.#. .o.7.9.dXKXmXMXsX%X..+ 7 C A $.W.} F V H ,XC.z 0 w 9 < p V l 1 $ c f.S.k.Z.Z.s.s.",
"M m n ^ (.(.( C E #.#.D ( T.T.| T.*.(.Q -X].Y.;.o.7.Y ,XMXKXMX2XX.C + A P.Q | T.D F V < z z 0 0 j 9 ; - p : = X O > c a.a.h 2.Z.",
"^ ` T S ( $.T v W $.Q D $.=XT.$.W T.| $.$.E.(.T.} ,Xo.,XKXMXhX,XP 6 B A S @.I.I.v | D 3 < q f 0 j < j - - $ O : - > g a.k.k.k.2.",
"` / N n E I.$.Z C W W E *.T.Y.*.W Y.$.H.I.T.T.T. .&X7.,XKXbXgX6.B n ) E E $.$.' v $.D 3 < q w 9 j 8 w O O $ % 1 : > 0 f h h a.2.",
"S m b b T T.T.Q v D Q $.T.T.T.Y.| *.( I.E.T.I.T.+.$X8.9.bXgX,XG 6 C J S W P.$.Q v P.W 6 3 3 w 9 j w f o O - : : - $ @ @ ; g a.2.",
"6 n b v T &.$.C C A | E.(.Y.*.T.| -.~ Y.Y.I.I.Y.-.O.W.8.bXgX8.F C )  .W ~ %.T.' n I.Q v 3 3 w w w w j O - y : $ - O O o @ 0 g.k.",
"M m S S n E E n C Z ( (.(.I.I.T.+.-.Q /././.&.Y.>. .x.x.HX>X~ B Y.| #.-.D  .T.W A I.E v 6 3 e w w 0 0 ; u u u 1 $ O - ; 8 0 g.k.",
"^ T ) m b A | Q C n Q (.(.I.Y.T.-.>.{ Y./.~.*.&.).#.;.x.rX8.F ~ T.Q ..>.~ } ;.Z Q E.T C B 3 r w w 8 8 - i : 1 : O + < q 0 0 c g.",
"S S S m 6 T T.$.Z n Q (.(.T.Y.*.>.>.{ I.Y./.I.&.:.T.-.>.W.~ D T.T.%.| >.;.;.i.D E T.! Z F 3 e 8 0 8 > - : - $ = + , 3 3 j 0 z 1.",
"n s m n v W I.Q C C E ~.T.&.@.) ;.)...>.~./.P.` | i.-.-.%.~ ~ W.P.T.|  .O.o.+.D D E.Q D F 3 r 8 ; ; ; - u y 1 + & p 5 , j 8 g z "
};
